<svg width="20" height="20" viewBox="0 0 20 20" fill="none" xmlns="http://www.w3.org/2000/svg">
<path d="M16.4064 17.5377C16.7188 17.8501 17.2254 17.8501 17.5378 17.5377C17.8502 17.2252 17.8502 16.7187 17.5378 16.4063L16.4064 17.5377ZM2.69213 3.82338L7.89937 9.03062L9.03074 7.89925L3.8235 2.69201L2.69213 3.82338ZM11.1319 12.2631L16.4064 17.5377L17.5378 16.4063L12.2632 11.1317L11.1319 12.2631Z" fill="#151515"/>
<path d="M2.85491 7.27487L2.85491 3.02866C2.85491 2.96554 2.90608 2.91438 2.9692 2.91438H7.2154" stroke="#151515" stroke-width="1.6" stroke-linecap="square"/>
<path d="M17.146 12.7233L17.146 16.9713C17.146 17.0344 17.0948 17.0856 17.0317 17.0856L12.7837 17.0856" stroke="#151515" stroke-width="1.6" stroke-linecap="square"/>
</svg>
