<svg width="17" height="16" viewBox="0 0 17 16" fill="none" xmlns="http://www.w3.org/2000/svg">
<path d="M9.42263 4.85088C10.5984 5.41666 11.547 6.36548 12.113 7.5412L4.26434 15.3898L1.76806 15.1958L1.57471 12.6988L9.42263 4.85088Z" fill="#282828" stroke="#282828" stroke-width="1.2" stroke-linecap="round"/>
<path d="M12.7689 0.655642C12.7723 0.652222 12.7774 0.651126 12.782 0.652842C14.4087 1.27026 15.6931 2.5547 16.3105 4.18139C16.3122 4.18591 16.3111 4.19102 16.3077 4.19444L13.8454 6.65673C13.8392 6.66301 13.8285 6.66072 13.8253 6.65242C13.2104 5.03225 11.9311 3.75297 10.3109 3.13802C10.3026 3.13487 10.3004 3.12421 10.3066 3.11793L12.7689 0.655642Z" fill="#282828"/>
</svg>
