<?xml version="1.0" encoding="UTF-8" standalone="no"?>
<!-- Created with Inkscape (http://www.inkscape.org/) -->

<svg
   width="366.9859"
   height="323.38742"
   viewBox="0 0 366.9859 323.38742"
   version="1.1"
   id="svg5"
   sodipodi:docname="sep_looks.svg"
   inkscape:version="1.1.2 (0a00cf5339, 2022-02-04)"
   xmlns:inkscape="http://www.inkscape.org/namespaces/inkscape"
   xmlns:sodipodi="http://sodipodi.sourceforge.net/DTD/sodipodi-0.dtd"
   xmlns="http://www.w3.org/2000/svg"
   xmlns:svg="http://www.w3.org/2000/svg">
  <sodipodi:namedview
     id="namedview7"
     pagecolor="#ffffff"
     bordercolor="#666666"
     borderopacity="1.0"
     inkscape:pageshadow="2"
     inkscape:pageopacity="0.0"
     inkscape:pagecheckerboard="0"
     inkscape:document-units="px"
     showgrid="false"
     inkscape:zoom="0.8334807"
     inkscape:cx="361.13614"
     inkscape:cy="-84.585042"
     inkscape:window-width="1920"
     inkscape:window-height="1016"
     inkscape:window-x="0"
     inkscape:window-y="27"
     inkscape:window-maximized="1"
     inkscape:current-layer="g4154"
     inkscape:lockguides="true"
     fit-margin-top="0"
     fit-margin-left="0"
     fit-margin-right="0"
     fit-margin-bottom="0" />
  <defs
     id="defs2">
    <rect
       x="-329.11603"
       y="-358.77848"
       width="792.73092"
       height="245.06662"
       id="rect35686" />
    <rect
       x="-42.109814"
       y="-140.06932"
       width="1179.0257"
       height="400.42653"
       id="rect21384" />
    <rect
       x="165.88539"
       y="-112.37387"
       width="126.24091"
       height="91.948992"
       id="rect16048" />
    <rect
       x="166.87911"
       y="-106.34789"
       width="174.62808"
       height="120.8605"
       id="rect11950" />
    <rect
       x="159.83702"
       y="-109.9078"
       width="343.01681"
       height="113.22256"
       id="rect6504" />
    <rect
       x="-70.380327"
       y="-156.79035"
       width="449.97726"
       height="118.031"
       id="rect1756" />
    <inkscape:path-effect
       effect="bend_path"
       id="path-effect72154"
       is_visible="true"
       lpeversion="1"
       bendpath="m 431.27887,213.15274 c 74.18236,34.74232 110.66069,63.34228 131.43183,100.1351"
       prop_scale="1"
       scale_y_rel="false"
       vertical="false"
       hide_knot="false"
       bendpath-nodetypes="cc" />
    <inkscape:path-effect
       effect="bend_path"
       id="path-effect70609"
       is_visible="true"
       lpeversion="1"
       bendpath="m 406.66934,232.57859 h 115.3955"
       prop_scale="1"
       scale_y_rel="false"
       vertical="false"
       hide_knot="false" />
    <inkscape:path-effect
       effect="bend_path"
       id="path-effect70451"
       is_visible="true"
       lpeversion="1"
       bendpath="m 406.66934,232.57859 h 115.3955"
       prop_scale="1"
       scale_y_rel="false"
       vertical="false"
       hide_knot="false" />
  </defs>
  <g
     inkscape:groupmode="layer"
     id="layer3"
     inkscape:label="Layer 2"
     transform="translate(-176.98586,-160.57519)">
    <path
       style="fill:currentColor;fill-opacity:1;stroke-width:0.111802"
       d="m 425.9023,161.42672 c 0.0349,-0.66666 0.76703,-1.03407 1.51472,-0.76011 0.45025,0.16498 23.59056,12.91584 23.75842,13.09147 0.0745,0.0773 -2.81359,2.80025 -6.53084,6.15724 -6.3617,5.74512 -6.67355,6.00289 -6.87684,5.68385 -0.35077,-0.55044 -11.70347,-23.21866 -11.79611,-23.55356 -0.0471,-0.17006 -0.0784,-0.4485 -0.0692,-0.61889 z m 25.50672,25.65367 c 3.66776,-3.31465 6.74942,-5.99703 6.84804,-5.9609 0.19515,0.0714 63.5257,66.2916 63.58466,66.48577 0.047,0.15479 -13.22841,12.14397 -13.38373,12.08708 -0.0654,-0.0238 -14.42842,-15.01542 -31.91816,-33.31441 l -31.79954,-33.27094 z m 70.39534,73.53015 c 3.65776,-3.30332 6.70547,-5.98586 6.77264,-5.96125 0.0672,0.0245 2.74093,2.79154 5.94178,6.14869 6.833,7.16668 7.17564,7.58335 8.45303,10.29157 1.3043,2.76441 1.33368,5.11529 0.0821,6.57099 -1.0336,1.20221 -6.50898,5.9542 -7.00758,6.08181 -1.27141,0.32531 -2.91282,-0.0114 -4.60757,-0.94519 -2.01086,-1.10796 -2.0039,-1.1014 -9.4469,-8.87372 -3.72031,-3.88485 -6.78077,-7.11822 -6.80118,-7.18513 -0.0208,-0.0669 2.95574,-2.82446 6.61385,-6.12743 z"
       id="path65598" />
  </g>
  <g
     inkscape:label="Layer 1"
     inkscape:groupmode="layer"
     id="layer1"
     transform="translate(-176.98586,-160.57519)">
    <g
       id="g4154"
       transform="translate(22.318878,-128.70833)">
      <path
         style="fill:currentColor;stroke-width:1.82844"
         d="m 314.08932,605.9466 0.5663,-6.72437 12.79909,-2.18676 c 22.1084,-3.77729 42.64869,-13.63983 54.78135,-26.30362 2.92995,-3.0582 6.27991,-5.56036 7.44435,-5.56036 2.61434,0 8.1693,5.94713 8.1693,8.74605 0,3.32245 -21.60491,19.84406 -33.67662,25.75306 -11.65539,5.70519 -27.03017,10.08137 -41.85578,11.91354 l -8.79428,1.08681 z m -49.06667,-66.45549 c -1.42804,-1.42805 -0.68783,-8.11207 2.63728,-23.81418 2.5424,-12.00591 4.2025,-22.24895 3.68913,-22.76233 -0.51337,-0.51337 -5.78979,1.32332 -11.72537,4.08154 -9.08099,4.21986 -13.25599,5.01796 -26.33372,5.034 -12.80852,0.0157 -17.14954,-0.76838 -24.68396,-4.45852 -18.63551,-9.12712 -29.62011,-22.92467 -35.70575,-44.8493 l -3.04514,-10.97065 -7.59407,-0.56224 c -7.52725,-0.55729 -7.59407,-0.62566 -7.59407,-7.77088 0,-7.17312 0.0355,-7.20863 7.20586,-7.20863 8.12353,0 8.76564,-0.69138 13.4515,-14.48368 9.22137,-27.14203 32.54485,-45.98123 62.07962,-50.14392 6.7744,-0.9548 6.85666,-0.89142 6.85666,5.28337 0,5.32906 -0.74074,6.41375 -5.02822,7.36302 -32.83817,7.27054 -51.96012,26.89748 -54.69033,56.13465 -3.62765,38.84764 29.52491,67.12156 64.91885,55.36558 26.53051,-8.81202 40.74688,-44.10901 27.12641,-67.35057 -6.69797,-11.42923 -17.53551,-17.76663 -30.38258,-17.76663 -17.27399,0 -28.98004,8.74678 -34.41504,25.715 -2.53712,7.92096 -4.06205,10.06388 -7.50858,10.55152 -6.90665,0.97721 -8.26767,-1.92508 -5.77512,-12.31517 7.96057,-33.18337 46.05306,-48.13746 74.95352,-29.42474 7.59926,4.92044 10.12723,7.89629 18.94323,22.2994 2.99233,4.88872 3.09674,4.91092 9.84082,2.09306 6.51542,-2.72231 15.8454,-2.61232 25.37358,0.29914 3.32876,1.01714 4.32954,-0.23223 7.79142,-9.72676 9.22307,-25.29517 32.30761,-43.43838 61.76815,-48.54648 7.17162,-1.24348 7.78251,-0.60185 6.305,6.62229 -1.04556,5.11227 -2.12121,6.00013 -8.61152,7.10811 -18.36913,3.13585 -35.26338,16.27786 -44.09099,34.29829 -4.32538,8.82972 -5.01099,12.47048 -5.02448,26.68095 -0.0146,14.83895 0.51735,17.4182 5.40823,26.24829 10.01149,18.07493 26.73436,27.18463 46.59711,25.38354 26.88504,-2.43785 44.02274,-21.69793 44.47199,-49.9795 0.34772,-21.889 -14.66971,-37.31379 -36.31502,-37.30011 -16.85026,0.0106 -29.13814,9.93655 -34.24651,27.6636 -2.03808,7.07251 -2.97138,8.0496 -8.17367,8.55714 -5.68758,0.55488 -5.87231,0.35296 -5.85501,-6.39955 0.0393,-15.31388 13.17372,-32.9726 29.53304,-39.7058 24.2922,-9.99824 50.30085,-0.23245 62.85149,23.59963 5.50779,10.45858 6.12179,10.98793 13.36697,11.52435 7.52718,0.5573 7.59401,0.62568 7.59401,7.77088 0,7.02784 -0.16149,7.20863 -6.43875,7.20863 -7.06826,0 -7.24209,0.25287 -12.56878,18.28442 -10.40599,35.22561 -50.49497,53.19443 -84.22579,37.75196 -18.90917,-8.65691 -29.35912,-21.74718 -35.20723,-44.10285 -2.81978,-10.77921 -4.31927,-13.41447 -9.6991,-17.04551 -4.65669,-3.14297 -7.83503,-4.00243 -11.84899,-3.20413 -10.96742,2.18121 -12.69882,6.13967 -21.92056,50.11639 -4.79156,22.85004 -7.87933,41.58037 -6.9997,42.46 0.86567,0.86567 13.89786,1.80272 28.96042,2.08232 l 27.38647,0.50838 v 6.39955 6.39954 l -35.70873,0.49442 c -23.88044,0.33065 -36.36632,-0.16318 -37.69398,-1.49083 z"
         id="path4156"
         sodipodi:nodetypes="ccssssssccssssssscssssssssssssssssssssssscsssssssssssssssssssscccss" />
      <ellipse
         style="fill:currentColor;stroke:currentColor;stroke-width:0.755906"
         id="path1208"
         cx="252.33231"
         cy="414.18094"
         rx="9.9109173"
         ry="9.1598053" />
      <ellipse
         style="fill:currentColor;stroke:currentColor;stroke-width:0.755906"
         id="path1208-7"
         cx="413.76019"
         cy="414.32724"
         rx="9.9109173"
         ry="9.1598053" />
      <text
         xml:space="preserve"
         transform="translate(154.66698,289.28352)"
         id="text1754"
         style="fill:black;fill-opacity:1;stroke:none;font-family:'Space Mono';font-style:normal;font-weight:normal;font-size:40px;line-height:1.25;letter-spacing:0px;word-spacing:0px;white-space:pre;shape-inside:url(#rect1756);-inkscape-font-specification:'Space Mono';font-stretch:normal;font-variant:normal" />
      <text
         xml:space="preserve"
         style="font-style:normal;font-weight:normal;font-size:48px;line-height:1.25;font-family:sans-serif;letter-spacing:0px;word-spacing:0px;fill:#000000;fill-opacity:1;stroke:none"
         x="318.77811"
         y="177.49799"
         id="text2774"><tspan
           sodipodi:role="line"
           id="tspan2772"
           x="318.77811"
           y="177.49799"
           style="font-style:normal;font-variant:normal;font-weight:bold;font-stretch:normal;font-size:48px;font-family:'Space Mono';-inkscape-font-specification:'Space Mono'" /></text>
      <text
         xml:space="preserve"
         transform="translate(154.66698,289.28352)"
         id="text6502"
         style="fill:black;fill-opacity:1;stroke:none;font-family:sans-serif;font-style:normal;font-weight:normal;font-size:40px;line-height:1.25;letter-spacing:0px;word-spacing:0px;white-space:pre;shape-inside:url(#rect6504)" />
      <text
         xml:space="preserve"
         transform="translate(154.66698,289.28352)"
         id="text11948"
         style="fill:black;fill-opacity:1;stroke:none;font-family:sans-serif;font-style:normal;font-weight:normal;font-size:40px;line-height:1.25;letter-spacing:0px;word-spacing:0px;white-space:pre;shape-inside:url(#rect11950)" />
      <text
         xml:space="preserve"
         transform="translate(154.66698,289.28352)"
         id="text16046"
         style="fill:black;fill-opacity:1;stroke:none;font-family:sans-serif;font-style:normal;font-weight:normal;font-size:40px;line-height:1.25;letter-spacing:0px;word-spacing:0px;white-space:pre;shape-inside:url(#rect16048)" />
      <text
         xml:space="preserve"
         transform="translate(154.66698,289.28352)"
         id="text21382"
         style="font-style:normal;font-weight:normal;font-size:192px;line-height:1.25;font-family:sans-serif;letter-spacing:0px;word-spacing:0px;white-space:pre;shape-inside:url(#rect21384);fill:#000000;fill-opacity:1;stroke:none" />
    </g>
  </g>
</svg>
