<svg width="164" height="38" viewBox="0 0 164 38" fill="none" xmlns="http://www.w3.org/2000/svg">
<path d="M20.8835 10.0317C27.0224 10.0317 31.9992 15.0772 31.9992 21.3009C31.9992 27.5246 27.0224 32.5699 20.8835 32.5699H18.2973L9.49227 37.5L11.3075 32.0998C6.71989 30.712 3.37502 26.403 3.375 21.3009C3.375 15.0772 8.35157 10.0318 14.4905 10.0317H20.8835Z" fill="#006E53"/>
<path d="M24.2579 12.7204C23.7537 11.6695 22.7728 10.5904 21.75 10.1178C18.7821 8.74648 15.1545 8.90864 13.0734 10.1177L13.0739 10.1178C18.8263 9.44902 21.8441 11.4934 22.773 13.4297C23.7205 15.4049 23.8231 17.7951 23.0158 19.5654C22.1967 21.3613 20.9096 22.5742 19.3194 23.2124C17.719 23.8547 15.7494 23.9387 13.548 23.3538L12.8201 23.1605L9.28111 32.9225L10.83 33.4873L13.8634 25.1201C16.0628 25.5823 18.1408 25.4621 19.9365 24.7414C21.9411 23.9369 23.5314 22.4085 24.5148 20.2521C25.5543 17.9729 25.3837 15.0673 24.2579 12.7204Z" fill="white"/>
<path d="M26.6092 0.516201C23.7804 0.248955 21.3333 3.30412 18.3867 8.48946C18.3867 8.48946 21.273 8.41115 23.5784 8.90993C27.0862 9.66889 28.6297 11.1522 28.6297 11.1522C28.6297 11.1522 28.8076 8.86538 29.3032 7.86544C30.1748 6.10701 32.2779 5.8611 33.681 5.52704C31.3237 4.6919 31.3237 4.35784 30.987 3.85676C30.6502 3.35567 30.1451 0.850258 26.6092 0.516201Z" fill="#006E53"/>
<path d="M63.3132 19.5422C63.3132 21.4583 62.9187 23.2167 62.1297 24.8172C61.3407 26.3952 60.2136 27.6463 58.7483 28.5706C57.283 29.4949 55.5698 29.957 53.6085 29.957C53.0675 29.957 52.4814 29.9119 51.8502 29.8217C51.219 29.7316 50.7118 29.6188 50.3285 29.4836L50.43 32.324V35.7392L53.9467 36.1112V37.7681H44.5125V36.1112L46.9471 35.7392V13.4218L44.4787 12.8131V10.9871L49.2803 10.3785H49.3479L50.058 10.9871V12.9822C50.7343 12.2383 51.5684 11.6071 52.5603 11.0886C53.5747 10.5701 54.7019 10.3109 55.9417 10.3109C57.2717 10.3109 58.4891 10.6377 59.5937 11.2915C60.7208 11.9452 61.6225 12.9596 62.2988 14.3348C62.9751 15.7099 63.3132 17.4457 63.3132 19.5422ZM54.5553 12.6779C53.6987 12.6779 52.8984 12.8582 52.1545 13.2189C51.4106 13.5796 50.8358 13.9741 50.43 14.4024V27.1504C50.5878 27.4209 50.9823 27.6689 51.6135 27.8943C52.2672 28.0972 52.9773 28.1986 53.7438 28.1986C55.4796 28.1986 56.8772 27.5111 57.9368 26.136C59.0188 24.7608 59.5599 22.6869 59.5599 19.9141C59.5599 17.4795 59.0865 15.6648 58.1396 14.47C57.2154 13.2752 56.0206 12.6779 54.5553 12.6779ZM66.2527 24.5129C66.2527 22.3938 67.3122 20.8384 69.4313 19.8465C71.5503 18.8321 74.2329 18.291 77.4791 18.2234V17.2766C77.4791 16.2171 77.3663 15.383 77.1409 14.7743C76.9155 14.1657 76.521 13.7261 75.9574 13.4556C75.4164 13.1625 74.6387 13.016 73.6242 13.016C72.4745 13.016 71.4376 13.1851 70.5133 13.5232C69.6116 13.8388 68.7099 14.2333 67.8082 14.7067L66.9628 12.9484C67.2559 12.7004 67.7969 12.3735 68.5859 11.9678C69.3749 11.562 70.2879 11.2013 71.3249 10.8857C72.3618 10.5701 73.3988 10.4123 74.4358 10.4123C76.0363 10.4123 77.2987 10.6377 78.223 11.0886C79.1698 11.5169 79.8461 12.2157 80.2518 13.1851C80.6576 14.1544 80.8605 15.4506 80.8605 17.0737V27.9281H82.8555V29.416C82.4047 29.5287 81.8298 29.6414 81.131 29.7541C80.4547 29.8668 79.8573 29.9232 79.3389 29.9232C78.7077 29.9232 78.2793 29.8217 78.0539 29.6188C77.8285 29.4385 77.7158 29.0214 77.7158 28.3677V27.2518C77.0395 27.9281 76.2054 28.548 75.2135 29.1116C74.2442 29.6752 73.1396 29.957 71.8997 29.957C70.2766 29.957 68.924 29.4949 67.842 28.5706C66.7825 27.6238 66.2527 26.2712 66.2527 24.5129ZM73.3537 27.6576C73.9398 27.6576 74.6161 27.4773 75.3826 27.1166C76.149 26.7559 76.8479 26.3276 77.4791 25.8316V20.0156C75.0219 20.0156 73.1621 20.3988 71.8997 21.1653C70.6598 21.9092 70.0399 22.8898 70.0399 24.1071C70.0399 25.3244 70.333 26.2261 70.9191 26.8122C71.5277 27.3758 72.3393 27.6576 73.3537 27.6576ZM85.2749 27.9281L87.8109 27.7252V13.4218L85.3763 12.8131V10.9871L90.0427 10.3785H90.1103L90.8542 10.9871V11.5958L90.7528 14.2333H90.8542C91.0796 13.8501 91.4854 13.3541 92.0715 12.7455C92.6576 12.1368 93.4128 11.5845 94.3371 11.0886C95.2613 10.5701 96.2645 10.3109 97.3466 10.3109C97.7974 10.3109 98.1694 10.3672 98.4624 10.4799V14.2671C98.3046 14.1544 98.0454 14.053 97.6847 13.9628C97.3466 13.8501 96.9633 13.7937 96.535 13.7937C94.664 13.7937 92.9282 14.3686 91.3276 15.5183V27.6914L95.622 27.9619V29.585H85.2749V27.9281ZM101.134 4.35953L98.3951 3.98758V2.53356L103.839 1.89109H103.907L104.651 2.39831V27.6576L107.525 27.9281V29.585H98.3951V27.9281L101.134 27.6238V4.35953ZM109.926 24.5129C109.926 22.3938 110.986 20.8384 113.105 19.8465C115.224 18.8321 117.906 18.291 121.152 18.2234V17.2766C121.152 16.2171 121.04 15.383 120.814 14.7743C120.589 14.1657 120.194 13.7261 119.631 13.4556C119.09 13.1625 118.312 13.016 117.298 13.016C116.148 13.016 115.111 13.1851 114.187 13.5232C113.285 13.8388 112.383 14.2333 111.481 14.7067L110.636 12.9484C110.929 12.7004 111.47 12.3735 112.259 11.9678C113.048 11.562 113.961 11.2013 114.998 10.8857C116.035 10.5701 117.072 10.4123 118.109 10.4123C119.71 10.4123 120.972 10.6377 121.896 11.0886C122.843 11.5169 123.519 12.2157 123.925 13.1851C124.331 14.1544 124.534 15.4506 124.534 17.0737V27.9281H126.529V29.416C126.078 29.5287 125.503 29.6414 124.804 29.7541C124.128 29.8668 123.531 29.9232 123.012 29.9232C122.381 29.9232 121.953 29.8217 121.727 29.6188C121.502 29.4385 121.389 29.0214 121.389 28.3677V27.2518C120.713 27.9281 119.879 28.548 118.887 29.1116C117.917 29.6752 116.813 29.957 115.573 29.957C113.95 29.957 112.597 29.4949 111.515 28.5706C110.456 27.6238 109.926 26.2712 109.926 24.5129ZM117.027 27.6576C117.613 27.6576 118.289 27.4773 119.056 27.1166C119.822 26.7559 120.521 26.3276 121.152 25.8316V20.0156C118.695 20.0156 116.835 20.3988 115.573 21.1653C114.333 21.9092 113.713 22.8898 113.713 24.1071C113.713 25.3244 114.006 26.2261 114.592 26.8122C115.201 27.3758 116.013 27.6576 117.027 27.6576ZM130.909 13.4218L128.475 12.8131V10.9871L133.31 10.3785H133.412L134.122 10.9871V12.4073L134.088 13.2189C134.899 12.4975 135.97 11.8438 137.3 11.2577C138.63 10.6715 139.904 10.3785 141.121 10.3785C142.542 10.3785 143.635 10.649 144.401 11.19C145.19 11.7311 145.743 12.5651 146.058 13.6923C146.374 14.7969 146.532 16.296 146.532 18.1896V27.6576L148.899 27.8943V29.585H140.885V27.9281L142.981 27.6576V18.1558C142.981 16.8257 142.891 15.7888 142.711 15.0449C142.53 14.2784 142.192 13.7148 141.696 13.3541C141.2 12.9709 140.479 12.7793 139.532 12.7793C138.72 12.7793 137.853 12.9822 136.928 13.388C136.004 13.7937 135.181 14.2671 134.46 14.8082V27.6238L136.759 27.9281V29.585H128.779V27.9281L130.909 27.6238V13.4218ZM157.118 29.9232C155.833 29.9232 154.875 29.6301 154.243 29.044C153.612 28.4579 153.297 27.4547 153.297 26.0345V13.0498H150.862V11.5282C150.975 11.5056 151.29 11.4267 151.809 11.2915C152.327 11.1562 152.677 11.0322 152.857 10.9195C153.218 10.7166 153.499 10.3109 153.702 9.7022C153.883 9.27388 154.097 8.58633 154.345 7.63952C154.593 6.69272 154.739 6.12915 154.784 5.94881H156.779L156.847 10.8181H162.494V13.0498H156.847V23.4308C156.847 24.7158 156.881 25.6175 156.949 26.136C157.039 26.6544 157.208 26.9926 157.456 27.1504C157.726 27.3082 158.177 27.3871 158.808 27.3871C159.417 27.3871 160.082 27.3082 160.803 27.1504C161.547 26.9926 162.122 26.8235 162.528 26.6432L163.035 28.1648C162.494 28.5706 161.615 28.9651 160.398 29.3483C159.203 29.7316 158.109 29.9232 157.118 29.9232Z" fill="#006E53"/>
</svg>
