<svg width="71" height="17" viewBox="0 0 71 17" fill="none" xmlns="http://www.w3.org/2000/svg">
<path d="M23.3756 14.2714V5.73833C23.5803 5.67285 23.8217 5.61556 24.1 5.56644C24.3783 5.51733 24.6689 5.47641 24.9717 5.44367C25.2746 5.41093 25.5693 5.39456 25.8557 5.39456C26.5269 5.39456 27.0917 5.5337 27.5501 5.812C28.0084 6.08211 28.3563 6.47091 28.5937 6.97839C28.8311 7.48587 28.9497 8.08339 28.9497 8.77094C28.9497 9.43394 28.8556 10.0192 28.6674 10.5267C28.4791 11.0341 28.1926 11.4311 27.8079 11.7176C27.4314 12.0041 26.9607 12.1473 26.396 12.1473C26.1831 12.1473 25.9662 12.1228 25.7452 12.0737C25.5324 12.0246 25.3032 11.9468 25.0577 11.8404V14.2714H23.3756ZM26.0522 10.6986C26.3223 10.6986 26.5433 10.6249 26.7152 10.4776C26.8871 10.3302 27.0139 10.1174 27.0958 9.83911C27.1858 9.55263 27.2309 9.21294 27.2309 8.82006C27.2309 8.23891 27.1163 7.76417 26.8871 7.39583C26.6579 7.0275 26.31 6.84333 25.8435 6.84333C25.7125 6.84333 25.5734 6.85152 25.426 6.86789C25.2787 6.87607 25.1559 6.88426 25.0577 6.89244V10.4407C25.1723 10.5144 25.3196 10.5758 25.4997 10.6249C25.6879 10.674 25.8721 10.6986 26.0522 10.6986ZM32.7015 12.1473C32.2922 12.1473 31.9198 12.1105 31.5842 12.0368C31.2486 11.9632 30.958 11.8445 30.7125 11.6808C30.4751 11.5171 30.2909 11.3002 30.16 11.0301C30.0372 10.7518 29.9758 10.4162 29.9758 10.0233C29.9758 9.5158 30.1027 9.11881 30.3564 8.83233C30.6101 8.53767 30.9416 8.32894 31.3509 8.20617C31.7602 8.0752 32.194 8.00972 32.6524 8.00972C32.8815 8.00972 33.0944 8.022 33.2908 8.04656C33.4872 8.06293 33.6632 8.08748 33.8187 8.12022V7.9115C33.8187 7.69868 33.7737 7.51043 33.6837 7.34672C33.5936 7.17483 33.4504 7.03978 33.254 6.94156C33.0575 6.84333 32.7956 6.79422 32.4682 6.79422C32.149 6.79422 31.842 6.81878 31.5474 6.86789C31.2527 6.90881 31.0112 6.96202 30.823 7.0275L30.5897 5.66467C30.7943 5.591 31.089 5.52552 31.4737 5.46822C31.8666 5.40274 32.2676 5.37 32.6769 5.37C33.3808 5.37 33.9333 5.47641 34.3344 5.68922C34.7355 5.90204 35.0179 6.20489 35.1816 6.59778C35.3535 6.99067 35.4394 7.45722 35.4394 7.99744V11.8527C35.1939 11.91 34.8255 11.9714 34.3344 12.0368C33.8515 12.1105 33.3072 12.1473 32.7015 12.1473ZM32.8242 10.7845C33.0043 10.7845 33.1803 10.7804 33.3522 10.7722C33.5323 10.764 33.6878 10.7559 33.8187 10.7477V9.26206C33.7123 9.24569 33.5814 9.23341 33.4259 9.22522C33.2703 9.20885 33.1271 9.20067 32.9961 9.20067C32.7588 9.20067 32.5378 9.22113 32.3331 9.26206C32.1285 9.30298 31.9607 9.38074 31.8297 9.49533C31.707 9.60174 31.6456 9.76135 31.6456 9.97417C31.6456 10.2606 31.752 10.4694 31.9648 10.6003C32.1858 10.7231 32.4723 10.7845 32.8242 10.7845ZM37.4722 12V5.95933C37.9142 5.79563 38.3726 5.66467 38.8474 5.56644C39.3221 5.46822 39.8746 5.41911 40.5049 5.41911C40.6358 5.41911 40.8241 5.4273 41.0696 5.44367C41.3152 5.46004 41.573 5.48869 41.8431 5.52961C42.1132 5.56235 42.3506 5.61556 42.5552 5.68922L42.2483 7.26078C42.1092 7.21985 41.9332 7.18302 41.7204 7.15028C41.5075 7.11754 41.2988 7.09298 41.0942 7.07661C40.8896 7.05206 40.7177 7.03978 40.5785 7.03978C40.3412 7.03978 40.1079 7.05206 39.8787 7.07661C39.6495 7.09298 39.4162 7.13391 39.1789 7.19939V12H37.4722ZM46.8963 12.1473C46.3806 12.1473 45.955 12.045 45.6194 11.8404C45.292 11.6276 45.0505 11.3206 44.895 10.9196C44.7395 10.5103 44.6617 10.0151 44.6617 9.43394V3.94578H42.8692V2.53383H46.3561V9.55672C46.3561 9.8432 46.397 10.0683 46.4789 10.232C46.5607 10.3957 46.6712 10.5103 46.8104 10.5758C46.9495 10.6413 47.105 10.674 47.2769 10.674C47.6125 10.674 47.8949 10.629 48.1241 10.5389C48.3614 10.4489 48.5129 10.3916 48.5784 10.3671L48.7994 11.7299C48.7421 11.7626 48.5538 11.8404 48.2346 11.9632C47.9154 12.0859 47.4693 12.1473 46.8963 12.1473ZM52.5756 12.1473C52.1664 12.1473 51.794 12.1105 51.4584 12.0368C51.1228 11.9632 50.8322 11.8445 50.5866 11.6808C50.3493 11.5171 50.1651 11.3002 50.0341 11.0301C49.9114 10.7518 49.85 10.4162 49.85 10.0233C49.85 9.5158 49.9768 9.11881 50.2306 8.83233C50.4843 8.53767 50.8158 8.32894 51.2251 8.20617C51.6343 8.0752 52.0682 8.00972 52.5265 8.00972C52.7557 8.00972 52.9685 8.022 53.165 8.04656C53.3614 8.06293 53.5374 8.08748 53.6929 8.12022V7.9115C53.6929 7.69868 53.6479 7.51043 53.5579 7.34672C53.4678 7.17483 53.3246 7.03978 53.1281 6.94156C52.9317 6.84333 52.6698 6.79422 52.3424 6.79422C52.0231 6.79422 51.7162 6.81878 51.4215 6.86789C51.1269 6.90881 50.8854 6.96202 50.6971 7.0275L50.4639 5.66467C50.6685 5.591 50.9632 5.52552 51.3479 5.46822C51.7407 5.40274 52.1418 5.37 52.5511 5.37C53.255 5.37 53.8075 5.47641 54.2086 5.68922C54.6097 5.90204 54.892 6.20489 55.0557 6.59778C55.2276 6.99067 55.3136 7.45722 55.3136 7.99744V11.8527C55.068 11.91 54.6997 11.9714 54.2086 12.0368C53.7257 12.1105 53.1813 12.1473 52.5756 12.1473ZM52.6984 10.7845C52.8785 10.7845 53.0545 10.7804 53.2264 10.7722C53.4064 10.764 53.562 10.7559 53.6929 10.7477V9.26206C53.5865 9.24569 53.4555 9.23341 53.3 9.22522C53.1445 9.20885 53.0013 9.20067 52.8703 9.20067C52.6329 9.20067 52.4119 9.22113 52.2073 9.26206C52.0027 9.30298 51.8349 9.38074 51.7039 9.49533C51.5811 9.60174 51.5197 9.76135 51.5197 9.97417C51.5197 10.2606 51.6262 10.4694 51.839 10.6003C52.06 10.7231 52.3465 10.7845 52.6984 10.7845ZM56.9904 12V5.73833C57.2932 5.65648 57.6656 5.57872 58.1076 5.50506C58.5578 5.43139 59.0407 5.39456 59.5564 5.39456C60.244 5.39456 60.776 5.52143 61.1525 5.77517C61.5372 6.02072 61.8032 6.3645 61.9506 6.8065C62.1061 7.2485 62.1839 7.76417 62.1839 8.3535V12H60.4895V8.5745C60.4895 8.17343 60.4609 7.85011 60.4036 7.60456C60.3463 7.35081 60.2399 7.16665 60.0844 7.05206C59.937 6.92928 59.7242 6.86789 59.4459 6.86789C59.3231 6.86789 59.1963 6.87607 59.0653 6.89244C58.9425 6.90063 58.8116 6.91291 58.6724 6.92928V12H56.9904ZM67.4212 12.1473C66.8973 12.1473 66.4513 12.0859 66.0829 11.9632C65.7146 11.8404 65.4322 11.5948 65.2358 11.2265C65.0475 10.8582 64.9534 10.3139 64.9534 9.59356V6.94156H63.48V5.54189H64.9534V3.90894L66.6477 3.63883V5.54189H69.3611V6.94156H66.6477V9.55672C66.6477 9.87594 66.6845 10.1174 66.7582 10.2811C66.84 10.4366 66.9546 10.543 67.102 10.6003C67.2493 10.6494 67.4171 10.674 67.6054 10.674C67.9246 10.674 68.1988 10.6535 68.428 10.6126C68.6572 10.5717 68.9314 10.4776 69.2506 10.3302L69.4839 11.7913C69.1728 11.9222 68.8331 12.0123 68.4648 12.0614C68.1047 12.1187 67.7568 12.1473 67.4212 12.1473Z" fill="#006E53"/>
<path d="M6.14024 14.944L7.12157 15.0869L7.12157 15.0869L6.14024 14.944ZM7.17405 7.84115L6.19273 7.69832L6.19273 7.69832L7.17405 7.84115ZM9.87025 11.7991C9.32256 11.7991 8.87858 12.2431 8.87858 12.7907C8.87858 13.3384 9.32256 13.7824 9.87025 13.7824L9.87025 11.7991ZM6.07379 14.9689L6.72057 14.2172L6.72057 14.2172L6.07379 14.9689ZM2.90196 10.9316L2.15024 10.2848L0.856684 11.7883L1.6084 12.4351L2.90196 10.9316ZM18.6523 8.23712L19.644 8.23711L18.6523 8.23712ZM7.12157 15.0869L8.15538 7.98398L6.19273 7.69832L5.15891 14.8012L7.12157 15.0869ZM11.9806 4.67526L14.0987 4.67526L14.0987 2.69193L11.9806 2.69193L11.9806 4.67526ZM14.0987 11.7991L9.87025 11.7991L9.87025 13.7824L14.0987 13.7824L14.0987 11.7991ZM6.72057 14.2172L2.90196 10.9316L1.6084 12.4351L5.42701 15.7206L6.72057 14.2172ZM8.15538 7.98398C8.43189 6.08422 10.0608 4.67526 11.9806 4.67526L11.9806 2.69193C9.07574 2.69193 6.61111 4.8238 6.19273 7.69832L8.15538 7.98398ZM5.15892 14.8012C5.26698 14.0588 6.15185 13.7278 6.72057 14.2172L5.427 15.7206C6.04412 16.2516 7.0043 15.8925 7.12157 15.0869L5.15892 14.8012ZM17.6606 8.23713C17.6607 10.2043 16.0659 11.7991 14.0987 11.7991L14.0987 13.7824C17.1613 13.7824 19.644 11.2997 19.644 8.23711L17.6606 8.23713ZM19.644 8.23711C19.6439 5.17458 17.1613 2.69193 14.0987 2.69193L14.0987 4.67526C16.0659 4.67526 17.6606 6.26996 17.6606 8.23713L19.644 8.23711Z" fill="#006E53"/>
<rect x="9.53125" y="7.73145" width="1.63972" height="1.61905" rx="0.809524" fill="#006E53"/>
<rect x="11.9883" y="7.73145" width="1.63972" height="1.61905" rx="0.809524" fill="#006E53"/>
<rect x="14.4492" y="7.73145" width="1.63972" height="1.61905" rx="0.809524" fill="#006E53"/>
</svg>
